<svg width="20" height="20" viewBox="0 0 20 20" fill="none" xmlns="http://www.w3.org/2000/svg">
<path fill-rule="evenodd" clip-rule="evenodd" d="M9.39368 3C12.3725 3 14.7874 5.41483 14.7874 8.39368C14.7874 9.94385 14.1334 11.3413 13.0863 12.3251L17.1591 16.5L16.4857 17L12.4371 12.8473C11.5708 13.4404 10.5228 13.7874 9.39368 13.7874C6.41483 13.7874 4 11.3725 4 8.39368C4 5.41483 6.41483 3 9.39368 3ZM9.39368 12.9576C11.9142 12.9576 13.9576 10.9142 13.9576 8.39368C13.9576 5.87311 11.9142 3.8298 9.39368 3.8298C6.87311 3.8298 4.8298 5.87311 4.8298 8.39368C4.8298 10.9142 6.87311 12.9576 9.39368 12.9576Z" fill="black"/>
</svg>
