<svg width="20" height="20" viewBox="0 0 20 20" fill="none" xmlns="http://www.w3.org/2000/svg">
<path fill-rule="evenodd" clip-rule="evenodd" d="M14.8025 14.7554C15.0763 15.9126 15.1688 17.1862 15.1688 18H16.125C16.125 17.7285 16.1155 17.4101 16.0936 17.0625C16.045 16.2931 15.9351 15.3804 15.7307 14.5166C15.5824 13.8895 15.3799 13.2692 15.1036 12.743C14.8295 12.2208 14.4613 11.7508 13.9628 11.4856C13.5582 11.2703 13.2752 11.1165 13.0828 11.0092V10.5219C13.1692 10.4474 13.2446 10.3641 13.3074 10.2873C13.4613 10.0987 13.6121 9.85666 13.7447 9.58244C14.0088 9.03567 14.2236 8.31271 14.2236 7.54543C14.2236 5.6195 12.5213 3 9.5625 3C6.6037 3 4.90137 5.6195 4.90137 7.54543C4.90137 8.31271 5.11613 9.03567 5.38033 9.58244C5.51285 9.85666 5.66362 10.0987 5.81758 10.2873C5.88039 10.3641 5.95583 10.4474 6.0422 10.5219V11.0092C5.84972 11.1165 5.56685 11.2703 5.16218 11.4856C4.6637 11.7508 4.29552 12.2208 4.02135 12.743C3.74506 13.2692 3.54261 13.8895 3.39428 14.5166C3.18994 15.3804 3.08003 16.2931 3.03142 17.0625C3.00945 17.4101 3 17.7285 3 18H3.95621C3.95621 17.1862 4.04872 15.9126 4.32247 14.7554C4.45935 14.1769 4.63717 13.6462 4.85999 13.2218C5.08493 12.7935 5.3347 12.5131 5.59678 12.3736C6.30264 11.998 6.78533 11.6863 6.96514 11.5702C6.97772 11.5621 6.98882 11.5549 6.9984 11.5487V9.86657L6.67086 9.76976L6.66567 9.76527C6.65165 9.75386 6.61042 9.72027 6.54566 9.64094C6.45006 9.52387 6.3394 9.35139 6.23425 9.1338C6.0231 8.69693 5.85758 8.12712 5.85758 7.54543C5.85758 6.09891 7.19745 3.99699 9.5625 3.99699C11.9275 3.99699 13.2674 6.09891 13.2674 7.54543C13.2674 8.12712 13.1019 8.69693 12.8908 9.1338C12.7856 9.35139 12.675 9.52387 12.5794 9.64094C12.5147 9.72019 12.4735 9.7537 12.4595 9.76515L12.4541 9.76976L12.1266 9.86657V11.323L12.1304 11.5698C12.1304 11.5698 12.773 11.9717 13.5282 12.3736C13.7903 12.5131 14.0401 12.7935 14.265 13.2218C14.4879 13.6462 14.6656 14.1769 14.8025 14.7554Z" fill="black"/>
</svg>
